<svg xmlns="http://www.w3.org/2000/svg" viewBox="0 0 131.77 185.33"><defs><style>.cls-1{fill:#efe4e4;}</style></defs><g id="Livello_2" data-name="Livello 2"><g id="Livello_1-2" data-name="Livello 1"><path class="cls-1" d="M71.57,12.25a1.66,1.66,0,0,0-1.63-1.67l-4.06,0-4,0a1.66,1.66,0,0,0,0,3.31h8.07A1.66,1.66,0,0,0,71.57,12.25Z"/><path class="cls-1" d="M131,25.63a.18.18,0,0,1-.05-.07c-1.34-2-4.33-3.81-9.12-5.42L120.37,12c-.19-3.77-5.68-6.68-16.8-8.91C93.49,1.11,80.1,0,65.88,0S38.28,1.11,28.2,3.13C17.08,5.36,11.59,8.27,11.4,12l-1.46,8.1C5.15,21.75,2.16,23.53.82,25.56l0,.07A4.63,4.63,0,0,0,0,28.13v6c0,1.61.9,3.12,2.66,4.47a21.58,21.58,0,0,0,5.18,2.76l3,26.81h0l0,.39h0l6.23,55.24,1.14,10.1,3.91,34.79a14.28,14.28,0,0,0,10.2,12.1,120.54,120.54,0,0,0,33.5,4.57,120.56,120.56,0,0,0,33.51-4.57,14.25,14.25,0,0,0,10.19-12.1l3.92-34.79,1.14-10.1,6.23-55.24h0l0-.39h0l3-26.81c5.27-2.08,7.84-4.45,7.84-7.23v-6A4.63,4.63,0,0,0,131,25.63Zm-3.65.93-.13.11-.08.06-.13.1-.09.07-.15.1-.1.08-.16.1-.12.08-.16.1-.14.09-.15.09-.19.11-.09.05L125,28c-.48.24-1,.48-1.55.72l-.94-4.84a16.77,16.77,0,0,1,4.85,2.61ZM65.88,36c-19.73,0-38.14-1.83-50-4.77-1.63-.41-3.13-.84-4.5-1.28L13,21.72h0l1-5.3c2.66,1.94,7.37,3.57,14.23,4.94,10.08,2,23.46,3.14,37.68,3.14s27.61-1.12,37.69-3.14c6.86-1.37,11.57-3,14.22-4.94l1,5.3h0l1.59,8.2c-.72.23-1.49.46-2.28.69C106.41,33.9,86.9,36,65.88,36ZM5.09,27.07,5,27a.91.91,0,0,0-.16-.11l-.08-.06-.14-.12-.07,0-.14-.11,0,0a16.63,16.63,0,0,1,4.85-2.61l-.94,4.84c-.55-.24-1.07-.48-1.55-.72l-.6-.32L6,27.64l-.17-.09a1,1,0,0,0-.17-.1l-.12-.08-.18-.11-.11-.07ZM28.85,6.38c9.87-2,23-3.07,37-3.07s27.17,1.09,37,3.07c10.38,2.07,14.15,4.64,14.15,5.86S113.3,16,102.92,18.1c-9.87,2-23,3.07-37,3.07s-27.16-1.09-37-3.07C18.47,16,14.7,13.46,14.7,12.24S18.47,8.45,28.85,6.38Zm90.39,47-1.5,13.33c-15.43,5.23-33.34,8-51.86,8S29.45,72,14,66.72L12.54,53.5a1.57,1.57,0,0,0,0-.57l-1.25-10.4c11.94,3.68,32.42,5.93,54.56,5.93s42.64-2.25,54.58-5.93l-1.23,10.41A1.68,1.68,0,0,0,119.24,53.39ZM106.3,168.29a11,11,0,0,1-7.84,9.3A117.35,117.35,0,0,1,65.88,182a117.33,117.33,0,0,1-32.57-4.44,11,11,0,0,1-7.84-9.3l-3.62-32.17a139.28,139.28,0,0,0,44,6.77,139.3,139.3,0,0,0,44-6.77ZM121.84,38.58h0c-11.08,4.05-32.52,6.57-55.95,6.57S21,42.63,9.94,38.58h0A19.91,19.91,0,0,1,4.68,36c-.89-.68-1.37-1.34-1.37-1.85V29.86l.39.25,0,0,.61.36.21.12.51.27.16.09a48.9,48.9,0,0,0,10.33,3.54c12.13,3,30.36,4.75,50.32,4.75,21.32,0,40.65-2,52.7-5.37a43.43,43.43,0,0,0,8-2.92l.16-.09.5-.27.22-.12.61-.36,0,0,.39-.25V34.1h0C128.45,35.1,126.71,36.8,121.84,38.58Z"/><path class="cls-1" d="M25,13.26c4.59,3.72,24.4,5.41,40.85,5.41s36.26-1.69,40.86-5.41a1.64,1.64,0,0,0,.62-1.28,1.66,1.66,0,0,0-.62-1.29c-4.6-3.71-24.4-5.4-40.86-5.4S29.62,7,25,10.69A1.66,1.66,0,0,0,24.41,12,1.64,1.64,0,0,0,25,13.26ZM65.88,8.6c16.77,0,30,1.56,35.91,3.38-5.91,1.81-19.14,3.38-35.91,3.38S35.89,13.79,30,12C35.89,10.16,49.11,8.6,65.88,8.6Z"/></g></g></svg>