<svg xmlns="http://www.w3.org/2000/svg" viewBox="0 0 157.65 157.62"><defs><style>.cls-1{fill:#26328d;}</style></defs><g id="Livello_2" data-name="Livello 2"><g id="Livello_1-2" data-name="Livello 1"><path class="cls-1" d="M123.71,54.86c-.08-.17-.17-.33-.26-.49a1.62,1.62,0,0,0-.1-.18A50.76,50.76,0,0,0,55.74,33.52h0l-.27.14-.4.21a50.44,50.44,0,0,0-24.72,30h0a50.44,50.44,0,0,0,3.73,38.66l.36.66h0a1.09,1.09,0,0,0,.08.15,50.69,50.69,0,0,0,67.39,20.6l.15-.07h0l.67-.35a50.44,50.44,0,0,0,24.7-30v0a50.42,50.42,0,0,0-3.73-38.67M111.87,50.3h0a8,8,0,0,0,.35-1.94,45.76,45.76,0,0,1,4.85,3.94,9.74,9.74,0,0,1-.59,3.53,55.69,55.69,0,0,0-4.83-4.89c.08-.21.16-.42.22-.64m-.18-5.51A33.93,33.93,0,0,1,116,47.63a12.84,12.84,0,0,1,1,3.65,45.65,45.65,0,0,0-4.78-3.78,9.85,9.85,0,0,0-.53-2.71m-19.46-3.4c.66.89,1.31,1.83,1.94,2.8-.32,0-.64.05-1,.05-.1-.33-.21-.66-.32-1-.21-.64-.43-1.26-.65-1.86m.22,2.83a11.24,11.24,0,0,1-1.13-.14c0-1,0-2,0-3,.29.76.57,1.55.85,2.38l.24.74M57.83,93.43q1.13-3,2.44-6.14A79.17,79.17,0,0,0,71,92c-.71,2.16-1.4,4.27-2,6.32a82.46,82.46,0,0,1-11.08-4.85M68.69,99c-.28.87-.55,1.74-.82,2.58-.34,1.11-.68,2.19-1,3.24a83.43,83.43,0,0,1-11.23-4.92c.43-1.41.91-2.85,1.43-4.33l.51-1.43A82.89,82.89,0,0,0,68.69,99M63.74,79.62c1-2.13,2.11-4.27,3.24-6.39a67.78,67.78,0,0,0,9,4l-.15.44c-.74,2.12-1.48,4.25-2.2,6.35a76.63,76.63,0,0,1-9.9-4.35m9.68,5Q72.27,88,71.18,91.29a79.61,79.61,0,0,1-10.63-4.66c.9-2.1,1.87-4.23,2.89-6.37a74.75,74.75,0,0,0,10,4.38m1.83-25.48c1.24-1.9,2.49-3.74,3.75-5.5a38.32,38.32,0,0,0,4.83,2.12c-.76,2-1.53,4-2.31,6.12a47.88,47.88,0,0,1-6.27-2.74m6,3.41c-.79,2.13-1.59,4.31-2.4,6.52a59.46,59.46,0,0,1-7.7-3.36c1.21-2,2.44-4,3.69-6a50.07,50.07,0,0,0,6.41,2.81m-6.65-3.75a40.51,40.51,0,0,1-5.39-3.48c1.64-1.65,3.32-3.22,5-4.7a31.19,31.19,0,0,0,4.13,2.68c-1.26,1.76-2.51,3.6-3.75,5.5m-.39.6q-1.87,2.91-3.69,6a48.94,48.94,0,0,1-6.62-4.3c1.56-1.82,3.17-3.57,4.81-5.25a41.6,41.6,0,0,0,5.5,3.57m-4,6.59c-1.18,2-2.33,4.08-3.45,6.16a.41.41,0,0,1,0,.09,56.16,56.16,0,0,1-7.67-5q1-1.33,2-2.64c.8-1,1.61-2,2.44-3A50.4,50.4,0,0,0,70.18,66M67.31,72.6l0-.09q1.68-3.14,3.45-6.17a58.65,58.65,0,0,0,7.82,3.42q-1.2,3.34-2.4,6.75a68.32,68.32,0,0,1-8.92-3.91m12-2.6c.68.23,1.36.45,2,.66a61.91,61.91,0,0,0,6.31,1.58c-.37,2.32-.78,4.68-1.22,7.06a71,71,0,0,1-7.18-1.79c-.79-.24-1.58-.5-2.36-.77q1.2-3.4,2.4-6.74m2.26,0c-.68-.21-1.35-.42-2-.65q1.2-3.33,2.39-6.53.81.29,1.65.54a51.49,51.49,0,0,0,5.21,1.3c-.31,2.25-.65,4.56-1,6.9A58.92,58.92,0,0,1,81.56,70m7.94-5.21a47.1,47.1,0,0,0,6.78.73c.18,2.31.3,4.67.36,7.06a55.44,55.44,0,0,1-8.16-.89c.37-2.34.71-4.65,1-6.9m-.61-.84a49.8,49.8,0,0,1-5.09-1.27l-1.61-.52C83,60,83.74,58,84.5,56c.4.14.8.27,1.21.39a38.44,38.44,0,0,0,4,1q-.34,3.18-.79,6.53m-4.8-8.82a36.87,36.87,0,0,1-4.66-2c.46-.64.92-1.27,1.38-1.88.79-1,1.56-2,2.34-3a26.57,26.57,0,0,0,3.11,1.37C85.7,51,85.13,52.43,84.54,54l-.45,1.16m-3.84-4.35c-.49.65-1,1.3-1.45,2a33,33,0,0,1-4-2.57C76.17,49,77.56,47.85,79,46.8l.92-.68a21.87,21.87,0,0,0,2.64,1.73c-.75.93-1.51,1.9-2.26,2.91m-2-7L78,43.44c1.08-.46,2.16-.88,3.24-1.27s1.94-.68,2.9-1l.15.16c.19.2.39.39.6.58q-2.48,1.47-5,3.29a15.9,15.9,0,0,1-1.63-1.51m1,1.94-.77.57q-2.16,1.64-4.3,3.48a25.25,25.25,0,0,1-2.5-2.3c-.19-.2-.37-.41-.55-.62q3-1.7,6.15-3c.13.15.27.31.42.46a15.42,15.42,0,0,0,1.55,1.46M71.2,47.9a27.19,27.19,0,0,0,2.47,2.29c-1.69,1.48-3.36,3.06-5,4.71-.75-.61-1.47-1.23-2.14-1.87a27.58,27.58,0,0,1-2-2.09q2.94-2.05,6-3.79.31.38.66.75M66,53.55q1,1,2.13,1.86c-1.64,1.68-3.25,3.43-4.81,5.25a36.9,36.9,0,0,1-3.93-3.61c-.4-.42-.78-.85-1.15-1.28l1-.82c1.52-1.26,3.09-2.47,4.69-3.6A28.25,28.25,0,0,0,66,53.55m-7.13,4a39.19,39.19,0,0,0,4,3.67c-.83,1-1.64,2-2.44,3s-1.36,1.75-2,2.64c-.91-.73-1.78-1.47-2.61-2.24a37.64,37.64,0,0,1-3.29-3.44c1.64-1.71,3.38-3.36,5.19-4.93.37.43.76.87,1.17,1.3m-.33,10.32a58.25,58.25,0,0,0,7.77,5q-1.69,3.19-3.23,6.39a61.58,61.58,0,0,1-8.53-5.52c1.25-2,2.59-4,4-5.9m4.23,12.07c-1,2.13-2,4.26-2.89,6.36a65.58,65.58,0,0,1-9.14-5.94c1-2,2.2-4,3.43-6a64.15,64.15,0,0,0,8.6,5.56M71.63,92.2c.94.32,1.89.63,2.85.92a81.29,81.29,0,0,0,8.57,2.14c-.53,2.21-1.07,4.36-1.63,6.43a86.57,86.57,0,0,1-8.88-2.21c-1-.3-2-.62-3-1,.65-2,1.34-4.17,2-6.32m3.06.24c-1-.29-1.9-.6-2.84-.92.73-2.18,1.47-4.4,2.24-6.64.87.3,1.76.59,2.65.86a78.89,78.89,0,0,0,8,2q-.75,3.49-1.54,6.84a83,83,0,0,1-8.53-2.13M77,85.06c-.88-.27-1.76-.56-2.63-.86.71-2.1,1.45-4.22,2.19-6.35l.16-.44c.78.28,1.58.53,2.38.78A70.63,70.63,0,0,0,86.31,80l0,.08q-.66,3.53-1.38,7a77,77,0,0,1-8-2m10-4.85s0-.06,0-.08a65,65,0,0,0,9.56,1q-.13,3.61-.45,7.13a69.83,69.83,0,0,1-10.51-1.13q.72-3.42,1.38-7m.15-.78c.44-2.38.85-4.74,1.22-7.06a54.81,54.81,0,0,0,8.29.9c0,1.93,0,3.89,0,5.84,0,.45,0,.89,0,1.34a65.06,65.06,0,0,1-9.46-1m9.08-21.34a28.15,28.15,0,0,0,4.65-.32c.8,2.15,1.53,4.37,2.17,6.64A36.35,36.35,0,0,1,97,64.8q-.28-3.44-.74-6.71m2.92-7.34a13.82,13.82,0,0,0,2-.63,68.49,68.49,0,0,1,4,5.78,18.16,18.16,0,0,1-2.81.87l-1,.2c-.81-2.12-1.69-4.17-2.64-6.13l.42-.09m-.75-.58q-1.42-2.87-3-5.45c.32-.08.63-.18.91-.28a60.94,60.94,0,0,1,4.45,5.09,11.71,11.71,0,0,1-1.73.52,5.6,5.6,0,0,1-.59.12m4.85,14.93c.62,2.28,1.17,4.61,1.63,7a43.72,43.72,0,0,1-7.52.5c0-2.39-.16-4.75-.34-7.06a37.06,37.06,0,0,0,6.23-.41m-6,16.07a50.29,50.29,0,0,0,8.71-.56h.1c.23,2.37.37,4.74.41,7.07-.77.12-1.56.23-2.35.32a56.47,56.47,0,0,1-7.32.32q.32-3.51.45-7.14m8.6-1.26a49.73,49.73,0,0,1-8.57.55c0-.44,0-.88,0-1.33,0-2,.05-3.92,0-5.85a43.1,43.1,0,0,0,7.63-.51c.09.5.18,1,.26,1.51q.48,2.81.76,5.61l-.14,0M104,65a26.83,26.83,0,0,0,5.24-1.5c.27.58.53,1.17.79,1.77.7,1.62,1.34,3.26,1.92,4.9a29.66,29.66,0,0,1-4.77,1.49c-.52.11-1,.22-1.57.31-.46-2.37-1-4.7-1.61-7m-.19-.69q-1-3.42-2.16-6.65c.3,0,.59-.11.88-.18a19.57,19.57,0,0,0,3-.94c1.21,2,2.34,4.13,3.38,6.31a25.72,25.72,0,0,1-5.13,1.46m-1.93-14.47a8.22,8.22,0,0,0,1.77-1.12c1.39,1.29,2.73,2.66,4,4.09l1,1.1a12.2,12.2,0,0,1-2.8,1.73c-1.24-2-2.56-4-4-5.8m1.77-2.09a64.87,64.87,0,0,0-5.53-4.51,3.37,3.37,0,0,0,.32-.45,58.41,58.41,0,0,1,6.2,3.62,5.46,5.46,0,0,1-1,1.34m-.54.48a8.85,8.85,0,0,1-1.68,1A63,63,0,0,0,97,44.12a4.47,4.47,0,0,0,.6-.4,59.84,59.84,0,0,1,5.52,4.49M97.5,42.8c-.76-.54-1.53-1.06-2.31-1.55l.28.12c.78.35,1.54.7,2.3,1.08a3,3,0,0,1-.27.35m-.55.48a4.46,4.46,0,0,1-.52.31c-.73-.73-1.47-1.44-2.22-2.12.92.58,1.84,1.18,2.74,1.81m-1.24.6a4.74,4.74,0,0,1-.57.15l-.19,0c-.57-.87-1.15-1.72-1.74-2.54.85.75,1.68,1.53,2.5,2.35m-1.12,1c1.07,1.71,2.09,3.53,3,5.44a19.17,19.17,0,0,1-2.78.16q-.63-2.88-1.43-5.51a11.09,11.09,0,0,0,1.17-.09M98,51c1,2,1.84,4,2.65,6.12a28.35,28.35,0,0,1-4.49.28q-.48-3.21-1.11-6.19A17.59,17.59,0,0,0,98,51M96.22,64.78a46.58,46.58,0,0,1-6.63-.71q.45-3.36.79-6.54a36.42,36.42,0,0,0,5.1.55c.3,2.17.55,4.41.74,6.7m-6.47-8.1a37.62,37.62,0,0,1-3.83-1l-1.16-.37c.15-.39.29-.77.44-1.14.59-1.53,1.17-3,1.73-4.42l.73.23c.87.27,1.75.49,2.62.67-.14,1.92-.31,3.92-.53,6m-3.22-7.79a26.51,26.51,0,0,1-2.92-1.27c1.21-1.49,2.41-2.88,3.58-4.15a11.06,11.06,0,0,0,1.31.58c-.63,1.51-1.29,3.13-2,4.84M83,47.28a21.24,21.24,0,0,1-2.49-1.6q2.52-1.8,5-3.26a11.43,11.43,0,0,0,1.06.7Q84.79,45,83,47.28M84.9,41c1.11-.33,2.21-.61,3.3-.86-.88.45-1.77.93-2.66,1.45A7.33,7.33,0,0,1,84.9,41m-.51-.59a5.55,5.55,0,0,1-.38-.56c1.1-.11,2.2-.19,3.3-.23-1,.23-1.94.5-2.92.79m-.7-1.25a2.83,2.83,0,0,1-.13-.5c1,.07,2,.16,3.07.28-1,.05-2,.12-2.94.22m-.16-1.21a3,3,0,0,1,.09-.43h0c.95.21,1.9.44,2.84.69-1-.1-1.95-.19-2.93-.25m.14,2.68q-1.33.4-2.67.9c-1.16.42-2.32.88-3.47,1.37A10,10,0,0,1,76.36,41a63.25,63.25,0,0,1,6.88-1.14,5.29,5.29,0,0,0,.43.7m-7.6-.22a6.48,6.48,0,0,1-.43-1.75c.68-.05,1.36-.08,2-.1,1.72-.05,3.44,0,5.14.06a3.46,3.46,0,0,0,.14.62,63.32,63.32,0,0,0-6.9,1.17m6.75-2.5c-1.71-.09-3.43-.11-5.15-.06-.69,0-1.37,0-2,.1a4.52,4.52,0,0,1,.2-1.23l.12-.34a55.83,55.83,0,0,1,7,1,3,3,0,0,0-.1.54M75.63,41.2a10.75,10.75,0,0,0,1.22,2q-3.1,1.36-6.15,3.07a15.49,15.49,0,0,1-1.93-3,66.08,66.08,0,0,1,6.86-2m-7.14,1.35a9.38,9.38,0,0,1-.69-2.92,62.47,62.47,0,0,1,7.12-1,7.14,7.14,0,0,0,.43,1.86,67.86,67.86,0,0,0-6.86,2m1.59,4q-3.06,1.74-6,3.8a20,20,0,0,1-2.6-4.14c.93-.45,1.88-.89,2.83-1.3,1.25-.54,2.52-1,3.79-1.5a15.72,15.72,0,0,0,2,3.14M63.5,50.8q-2.4,1.71-4.69,3.6l-1,.82a23.71,23.71,0,0,1-3.22-5.1,64.62,64.62,0,0,1,6.23-3.55A21,21,0,0,0,63.5,50.8m-6.21,4.89c-1.81,1.58-3.55,3.22-5.19,4.93a27.39,27.39,0,0,1-3.72-5.95A63.44,63.44,0,0,1,54,50.51a24.52,24.52,0,0,0,3.28,5.18m-1.93,9.44c.84.79,1.73,1.55,2.67,2.29q-2.13,2.91-4,5.9c-.44-.34-.86-.69-1.27-1A45.36,45.36,0,0,1,47.48,67c1.43-1.82,3-3.59,4.58-5.31a37.78,37.78,0,0,0,3.3,3.44M52.3,72.82l1.35,1.11c-1.24,2-2.39,4-3.44,6a48.29,48.29,0,0,1-7-6.76A65,65,0,0,1,47,67.58a44.9,44.9,0,0,0,5.26,5.24M50.44,81a67.89,67.89,0,0,0,9.2,6q-1.32,3.12-2.44,6.14a70.28,70.28,0,0,1-8.59-5.47l-.94-.72.26-.6q1.14-2.64,2.51-5.31m-2.25,7.2A71.05,71.05,0,0,0,57,93.76c-.19.51-.37,1-.55,1.53-.51,1.44-1,2.85-1.4,4.22A72.77,72.77,0,0,1,47.68,95c-.8-.57-1.58-1.15-2.33-1.74q.85-2.76,2-5.66l.8.61m7.23,12.36a84.09,84.09,0,0,0,11.24,4.91c-.55,1.82-1.07,3.55-1.54,5.17A82.36,82.36,0,0,1,54,105.77q.58-2.49,1.4-5.22m11.91,5.15c1,.34,2,.67,3,1a87.62,87.62,0,0,0,9,2.24q-.82,2.7-1.68,5.13a85.07,85.07,0,0,1-8.9-2.22q-1.5-.45-3-1c.47-1.63,1-3.35,1.54-5.17m3.22.3c-1-.31-2-.64-3-1,.32-1.06.66-2.15,1-3.26.26-.84.54-1.7.81-2.57,1,.34,2,.67,3,1a87.17,87.17,0,0,0,8.91,2.22q-.84,3-1.69,5.85a85,85,0,0,1-9-2.23m11.39-3.49a77.77,77.77,0,0,0,11.78,1.27c-.47,2-1,4-1.55,5.86a78.33,78.33,0,0,1-11.91-1.28c.56-1.86,1.13-3.82,1.68-5.85m.18-.69c.56-2.07,1.1-4.22,1.63-6.43a73.4,73.4,0,0,0,11.34,1.22c-.35,2.23-.75,4.38-1.21,6.47a77.48,77.48,0,0,1-11.76-1.26m1.8-7.12q.8-3.35,1.54-6.84A71,71,0,0,0,96.05,89c-.22,2.36-.51,4.66-.85,6.91A75,75,0,0,1,83.92,94.7M96.76,89a58.83,58.83,0,0,0,7.47-.32c.77-.09,1.53-.19,2.28-.31,0,2.32-.06,4.61-.22,6.84-1.43.23-2.91.4-4.44.52q-2.91.23-5.93.17c.34-2.24.62-4.55.84-6.9M106,74.16c-.08-.51-.17-1-.26-1.51.54-.09,1.07-.2,1.59-.32a29.66,29.66,0,0,0,4.85-1.51,70.08,70.08,0,0,1,2,6.83,34.42,34.42,0,0,1-7.37,2.12q-.28-2.79-.77-5.61m8.3,4.2a65.61,65.61,0,0,1,1.15,6.82,38.59,38.59,0,0,1-8.18,2.37q-.08-3.49-.42-7.07a36,36,0,0,0,7.45-2.12m-1.46-7.82a20.08,20.08,0,0,0,4.82-3,58.59,58.59,0,0,1,2.62,6.35,21.91,21.91,0,0,1-5.48,3.46c-.53-2.28-1.19-4.56-2-6.83m-.24-.67q-.86-2.48-1.92-4.9c-.25-.6-.52-1.19-.79-1.78a16.71,16.71,0,0,0,3.92-2.44,60.13,60.13,0,0,1,3.53,6.15,19,19,0,0,1-4.74,3m-3-7.32c-1-2.18-2.16-4.29-3.38-6.32a12.33,12.33,0,0,0,2.89-1.8,65.1,65.1,0,0,1,4.32,5.73,16.29,16.29,0,0,1-3.83,2.39m-1.39-10.23c-1.29-1.44-2.63-2.8-4-4.1a6.23,6.23,0,0,0,1.06-1.43,55.56,55.56,0,0,1,5.59,4.34,8.07,8.07,0,0,1-1.66,2.28c-.32-.36-.64-.73-1-1.09m-3.23-6.73h0l0,.13a60,60,0,0,0-6.2-3.6v0a2.66,2.66,0,0,0,.1-.49c1.39.47,2.76,1,4.09,1.56.76.33,1.51.67,2.25,1a4.64,4.64,0,0,1-.21,1.39m-1.76-3.07q-2.13-.92-4.36-1.65a2.65,2.65,0,0,0-.1-.55,46.27,46.27,0,0,1,5.93,1.45,6.68,6.68,0,0,1,.44,1.61c-.63-.3-1.26-.58-1.91-.86m-4.74-3a6.34,6.34,0,0,0-.35-.61h0a33.7,33.7,0,0,1,4.44.28l.58.08a10.23,10.23,0,0,1,1.08,1.6,44.8,44.8,0,0,0-5.79-1.35m-.32,1.84a2.76,2.76,0,0,1-.06.4c-.76-.37-1.52-.73-2.29-1.07l-.25-.11c.88.24,1.74.5,2.6.78m-2.68-1.54c.84.1,1.67.21,2.49.34a2.35,2.35,0,0,1,.13.43c-.86-.28-1.74-.53-2.62-.77m-.59-.77c.8-.07,1.59-.11,2.37-.13a4.25,4.25,0,0,1,.32.46c-.88-.13-1.78-.24-2.69-.33m-1-.63c.74-.25,1.47-.47,2.18-.67l.54.48c-.9,0-1.8.1-2.72.19m-1-.38,1-.75c.26-.19.51-.38.76-.55q.4.23.78.48c-.82.23-1.65.51-2.5.82m.53-1.32c-.46.35-.93.72-1.4,1.12l.32-.71L92.84,36c.35.13.68.27,1,.42l-.48.35m-1.72.12-.38.81c0-.77-.1-1.51-.17-2.23.31.07.63.16,1,.25l.13,0c-.17.34-.35.72-.53,1.12M91.3,44.8a13.26,13.26,0,0,0,1.37.14c.53,1.73,1,3.57,1.44,5.5A25.44,25.44,0,0,1,91,50.1c.13-1.85.22-3.62.27-5.3m3,6.37c.42,2,.79,4,1.1,6.18a35.4,35.4,0,0,1-4.92-.54c.22-2.07.39-4.07.53-6a25.38,25.38,0,0,0,3.29.35M90.6,44.68c-.06,1.68-.14,3.44-.27,5.29-.82-.17-1.65-.38-2.46-.63l-.67-.21q1-2.58,2-4.84l.22.07c.4.12.81.22,1.21.31h0M88.77,43.4c-.37-.14-.73-.3-1.08-.47.77-.81,1.52-1.58,2.26-2.29-.38.87-.77,1.79-1.18,2.76M87,42.59c-.31-.18-.61-.37-.89-.56,1-.58,2-1.1,3-1.59-.69.68-1.38,1.39-2.09,2.15m.12-6.52-1-.63.36-.09.25-.05c.56.5,1.11,1,1.66,1.59-.42-.28-.83-.56-1.25-.82m-.38.6.48.31c-.79-.35-1.6-.68-2.4-1a4.34,4.34,0,0,1,.43-.23c.5.29,1,.59,1.49.91m-.13.82c-.9-.24-1.8-.46-2.71-.66a2.78,2.78,0,0,1,.27-.33c.82.31,1.63.64,2.44,1m-2.6-1.8A51.94,51.94,0,0,0,78,33.86a9.08,9.08,0,0,1,1.57-.9,40.18,40.18,0,0,1,5,2.38,4.59,4.59,0,0,0-.51.35m-.56.55c-.1.14-.2.28-.29.43a59.05,59.05,0,0,0-6.93-1,5.41,5.41,0,0,1,1-1.22,49.61,49.61,0,0,1,6.23,1.8m-8-.64c-1.28-.09-2.56-.13-3.84-.13-1,0-2,0-3,.08a8.31,8.31,0,0,1,1.64-2.1,46.66,46.66,0,0,1,5.15.63l.94.18a5.75,5.75,0,0,0-.93,1.34m-.29.7-.06.18A5.34,5.34,0,0,0,74.9,38a59.84,59.84,0,0,0-7.11.94,7.46,7.46,0,0,1,.32-2,5.47,5.47,0,0,1,.23-.64,54.17,54.17,0,0,1,6.86,0m-7.38,6.49c-1.27.46-2.54,1-3.79,1.51-1,.41-1.9.84-2.83,1.3a12.4,12.4,0,0,1-.93-4,59.66,59.66,0,0,1,6.83-1.83,10,10,0,0,0,.72,3m-.39-6.08a8.4,8.4,0,0,0-.36,2.34,59.94,59.94,0,0,0-6.82,1.8c0-.16,0-.32,0-.48A9.5,9.5,0,0,1,61,37.28a49.43,49.43,0,0,1,6.55-.94l-.12.37m-6.87,9.2a69.06,69.06,0,0,0-6.23,3.54,14.71,14.71,0,0,1-1.14-5,56,56,0,0,1,6.38-2.66,13.43,13.43,0,0,0,1,4.08m-6.84,3.94A63.25,63.25,0,0,0,48.09,54a17.32,17.32,0,0,1-1.32-5.76,51.41,51.41,0,0,1,5.73-3.39,15.88,15.88,0,0,0,1.22,5M51.6,61.14C50,62.85,48.45,64.63,47,66.44a30.06,30.06,0,0,1-4.12-6.61c.12-.14.24-.27.37-.4a61.72,61.72,0,0,1,4.54-4.29,28,28,0,0,0,3.79,6m-5,5.87c-1.39,1.82-2.69,3.67-3.86,5.55a32.45,32.45,0,0,1-4.41-7.1,56.11,56.11,0,0,1,4.07-5.07A31.68,31.68,0,0,0,46.57,67M42.8,73.77a50.45,50.45,0,0,0,7.07,6.78c-.94,1.83-1.81,3.65-2.59,5.46l-.19.43a50.66,50.66,0,0,1-7.3-7c.82-1.75,1.75-3.51,2.79-5.26.07-.12.14-.24.22-.36m4,13.35c-.8,1.92-1.48,3.81-2.06,5.65a51.31,51.31,0,0,1-7.38-7.14,49.32,49.32,0,0,1,2.1-5.52,51.37,51.37,0,0,0,7.34,7M45.13,94c.69.54,1.4,1.07,2.14,1.59a72.55,72.55,0,0,0,7.51,4.65c-.54,1.81-1,3.55-1.41,5.21a69,69,0,0,1-9.52-6.2A49.92,49.92,0,0,1,45.13,94m8.73,12.51a84.19,84.19,0,0,0,11.06,4.84c-.45,1.55-.85,3-1.22,4.36A81.42,81.42,0,0,1,53,111c.19-1.41.47-2.92.83-4.51m10.33,10.13c.94.32,1.88.63,2.83.92a83.88,83.88,0,0,0,8.51,2.11c-.54,1.27-1,2.35-1.5,3.27a75.51,75.51,0,0,1-8-2q-1.35-.41-2.67-.87c0-.17.09-.36.14-.54.21-.89.46-1.86.73-2.89m3,.24q-1.44-.45-2.85-.93c.36-1.35.76-2.81,1.21-4.37,1,.34,2,.66,3,1a87,87,0,0,0,8.87,2.2c-.57,1.6-1.1,3-1.61,4.25a84.55,84.55,0,0,1-8.58-2.12m10.9-2h0a77.27,77.27,0,0,0,11.72,1.27,45.17,45.17,0,0,1-2,4.17,74.2,74.2,0,0,1-11.31-1.2c.57-1.4,1.11-2.84,1.61-4.23m.24-.69q.84-2.43,1.68-5.13A79.52,79.52,0,0,0,92,110.34c-.45,1.45-.93,2.83-1.44,4.16l-.37.93a76.71,76.71,0,0,1-11.77-1.25m12.8.57c.54-1.39,1-2.86,1.52-4.39,1,0,2,0,3,0a62.55,62.55,0,0,0,7.95-.69c-.1.3-.19.6-.3.89a42.49,42.49,0,0,1-1.63,4.14,60.94,60.94,0,0,1-10.8.75l.27-.7m4.5-5.1c-.92,0-1.83,0-2.76,0,.56-1.86,1.07-3.82,1.53-5.85,1.56,0,3.1,0,4.61-.07a58,58,0,0,0,6.22-.62,55.86,55.86,0,0,1-1.41,5.8,60.64,60.64,0,0,1-8.19.74M99,103c-1.45.08-2.92.1-4.41.07.46-2.08.86-4.24,1.21-6.46,2.07,0,4.11,0,6.1-.17,1.48-.12,2.92-.28,4.32-.5-.19,2.19-.46,4.34-.83,6.4A55.66,55.66,0,0,1,99,103m8-7.19a40.82,40.82,0,0,0,8.8-2.48,51.14,51.14,0,0,1-.52,6.25,41.88,41.88,0,0,1-9.09,2.63c.36-2.07.63-4.21.81-6.4m.06-.73q.24-3.34.2-6.83a39.43,39.43,0,0,0,8.25-2.35,62.57,62.57,0,0,1,.31,6.66A40.13,40.13,0,0,1,107,95.1m7.88-17a22.94,22.94,0,0,0,5.56-3.43,51,51,0,0,1,1.67,6.42,24,24,0,0,1-6.06,3.82,68.8,68.8,0,0,0-1.17-6.81m7.38,3.8c.28,1.61.49,3.23.61,4.84,0,.48.06,1,.08,1.44-.25.22-.5.44-.77.65a26.53,26.53,0,0,1-5.71,3.46,59.79,59.79,0,0,0-.34-6.64,25,25,0,0,0,6.13-3.75m.46-1.37a53.48,53.48,0,0,0-1.7-6.37,16.28,16.28,0,0,0,2.53-3,13.81,13.81,0,0,0,.81-1.38,42.69,42.69,0,0,1,1.93,5.75,15.83,15.83,0,0,1-3,4.41l-.55.55m.24-9.72a15.72,15.72,0,0,1-2.19,2.61,56.68,56.68,0,0,0-2.64-6.32,13.54,13.54,0,0,0,2.89-3.8c.69,1.12,1.32,2.26,1.91,3.43.38.74.73,1.48,1.06,2.23a14.67,14.67,0,0,1-1,1.85m-5.16-4.38a65.05,65.05,0,0,0-3.53-6.13,11.35,11.35,0,0,0,2.06-2.57,5.86,5.86,0,0,0,.3-.55,52.51,52.51,0,0,1,4,5.4,12.85,12.85,0,0,1-2.78,3.85m-1.67-9.84c-.12.26-.26.52-.41.78a10.72,10.72,0,0,1-1.85,2.33A64.83,64.83,0,0,0,109.59,54a8.84,8.84,0,0,0,1.75-2.34,54.83,54.83,0,0,1,4.83,4.94m-5-6.47h0c0,.12-.07.23-.11.35a56.31,56.31,0,0,0-5.58-4.31c0-.11.08-.22.11-.33h0a5.39,5.39,0,0,0,.23-1.25,48.87,48.87,0,0,1,5.68,3.33,7.49,7.49,0,0,1-.33,2.21m-5.34-6.34a7.42,7.42,0,0,0-.33-1.69,39.92,39.92,0,0,1,5.22,2.22,10.07,10.07,0,0,1,.73,2.7,55.09,55.09,0,0,0-5.62-3.23m-.67-2.55a10.34,10.34,0,0,0-1-1.73,27.51,27.51,0,0,1,4.31,1.16,15.54,15.54,0,0,1,1.76,2.61,41.11,41.11,0,0,0-5.06-2m-1.66-2.56-.5-.57a16.46,16.46,0,0,0-1.2-1.15,16.21,16.21,0,0,1,3.1.26,25.26,25.26,0,0,1,2.62,2.38,29.48,29.48,0,0,0-4-.92m-1.09-.15a35.47,35.47,0,0,0-4.3-.26h-.59c-.06-.08-.13-.15-.19-.22l-.46-.45a23.39,23.39,0,0,1,3.87-.6,15.33,15.33,0,0,1,1.67,1.52M96.7,36.88l-.49.13a9.42,9.42,0,0,0-1-.69,17.53,17.53,0,0,1,2.47-1.38,20.51,20.51,0,0,1,2.23,1.39,25.86,25.86,0,0,0-3.2.55m-2.2-.94c-.43-.22-.88-.42-1.34-.6.4-.82.74-1.46,1-2a26.28,26.28,0,0,1,2.71,1.16,18.77,18.77,0,0,0-2.39,1.41m-2-.84L92.25,35c-.42-.13-.84-.24-1.25-.33a23.38,23.38,0,0,0-.42-2.36c.77.16,1.54.36,2.3.59l.62.2c-.29.53-.63,1.18-1,2m-1.83,5.72c0,1,0,2,0,3.13l-1-.27-.15,0c.41-1,.81-1.92,1.2-2.81m-1.29-5.64c.33,0,.66.07,1,.13.07.62.13,1.32.18,2.09-.38-.79-.78-1.53-1.18-2.22M89.55,37c-.61-.66-1.23-1.28-1.86-1.87.26,0,.51,0,.8,0,.36.6.72,1.23,1.06,1.9M87,34.53a30.27,30.27,0,0,0-3.37-2.61,18.79,18.79,0,0,1,2.4-.1,19,19,0,0,1,2,2.62,8.91,8.91,0,0,0-1.05.09m-.9.19a7.54,7.54,0,0,0-.76.24,43.25,43.25,0,0,0-4.84-2.38,11.33,11.33,0,0,1,1.28-.36l.7-.14a28.4,28.4,0,0,1,3.62,2.64M79.5,32.19A35.13,35.13,0,0,0,75,30.82a19.14,19.14,0,0,1,2-.57c.38-.09.76-.16,1.15-.23a20.56,20.56,0,0,1,3.43,1.52,12.64,12.64,0,0,0-2,.65m-.91.43a8.31,8.31,0,0,0-1.56,1l-1.42-.28a44.89,44.89,0,0,0-4.49-.58,12.16,12.16,0,0,1,2.61-1.51,33.56,33.56,0,0,1,4.86,1.33m-8.51.1a41,41,0,0,0-5.44.06,16.92,16.92,0,0,1,3.25-1.89l.19-.08a26.52,26.52,0,0,1,4.42.28,12,12,0,0,0-2.42,1.63m-.71.68a9,9,0,0,0-1.51,2.2,53.25,53.25,0,0,0-6.47.87,10.89,10.89,0,0,1,2.28-2.89,41.31,41.31,0,0,1,5.7-.18m-8.88,3.26c-.81.18-1.63.38-2.44.6-1.19.33-2.36.7-3.49,1.1a13.16,13.16,0,0,1,2.78-3.52,34.9,34.9,0,0,1,5.17-1.12,11.26,11.26,0,0,0-2,2.94M58.24,38c.64-.18,1.28-.34,1.92-.49a10.55,10.55,0,0,0-.6,2.87c0,.25,0,.51,0,.76a55.49,55.49,0,0,0-6.36,2.62,11.74,11.74,0,0,1,.47-3.13c.13-.44.29-.88.46-1.3,1.34-.5,2.71-1,4.13-1.33M53,40.38a12.63,12.63,0,0,0-.51,3.68,52.39,52.39,0,0,0-5.7,3.32,13.17,13.17,0,0,1,1.11-5.14,40.6,40.6,0,0,1,5.34-2.6c-.09.24-.17.49-.24.74M47.52,54.46a61.65,61.65,0,0,0-4.77,4.48l-.16.17a20.62,20.62,0,0,1-1.22-4.21,18.18,18.18,0,0,1-.23-2.17,45.42,45.42,0,0,1,5-4,18.17,18.17,0,0,0,1.43,5.75m-5.46,5.22a52.6,52.6,0,0,0-4.08,5c-.25-.62-.47-1.23-.66-1.85a19.46,19.46,0,0,1-.87-5,40.44,40.44,0,0,1,4-4.5c0,.55.11,1.1.2,1.65a20.94,20.94,0,0,0,1.39,4.66m.25,13.52-.34.57c-1,1.66-1.89,3.34-2.68,5a33.21,33.21,0,0,1-4.56-7.37,46.77,46.77,0,0,1,3.1-5.27,33.32,33.32,0,0,0,4.48,7.06M39,79.5A48.91,48.91,0,0,0,36.83,85a35.54,35.54,0,0,1-3.59-5.39q-.56-1-1-2a39.76,39.76,0,0,1,2.07-5.3A34.35,34.35,0,0,0,39,79.5m-6.35.42a36,36,0,0,0,4,5.86A40.94,40.94,0,0,0,35.37,91a33,33,0,0,1-4.45-7.24,33.26,33.26,0,0,1,.89-4.64c0-.17.09-.32.13-.48.21.44.43.88.67,1.33m3.07,14.6c0-.62.09-1.25.17-1.88.9,1.06,1.89,2.1,2.95,3.13a54.39,54.39,0,0,0,4.28,3.75,39.06,39.06,0,0,0-.54,4.62c-.66-.53-1.31-1.08-1.93-1.63a46.49,46.49,0,0,1-5-5.09c0-1,0-1.91,0-2.9m3.61.74A45.63,45.63,0,0,1,36,91.69a40,40,0,0,1,1.16-5.25,52.6,52.6,0,0,0,7.39,7.06c-.54,1.79-1,3.54-1.3,5.22-1.39-1.11-2.7-2.27-3.93-3.46m3.92,10.31a68.07,68.07,0,0,0,9,5.81c-.12.91-.21,1.77-.25,2.6,0,.36,0,.72,0,1.07a62.2,62.2,0,0,1-8.47-5.55,23,23,0,0,1-.28-3.62v-.31m0-.89a36.11,36.11,0,0,1,.48-4.67,70,70,0,0,0,9.5,6.13c-.36,1.58-.65,3.08-.85,4.49a67.41,67.41,0,0,1-9.13-5.95M52.72,114q.06-1.09.21-2.28a80.69,80.69,0,0,0,10.59,4.63c-.28,1.06-.53,2-.76,3,0,.16-.07.32-.11.48a74.34,74.34,0,0,1-10-4.38c0-.46,0-.93,0-1.41m10.44,6.72c.87.3,1.74.58,2.62.85,2.63.8,5.27,1.46,7.9,2a22.08,22.08,0,0,1-1.3,2.17,72.18,72.18,0,0,1-7.31-1.81c-.81-.25-1.62-.51-2.41-.79.12-.64.28-1.43.5-2.4m11.25,3a69.67,69.67,0,0,0,10.3,1.15,16.22,16.22,0,0,1-2.08,2,64.48,64.48,0,0,1-9.5-1,25.17,25.17,0,0,0,1.28-2.18m.34-.66c.51-1,1-2.12,1.49-3.26A76.53,76.53,0,0,0,87.43,121a28,28,0,0,1-2.14,3.16A68.91,68.91,0,0,1,74.75,123m13.5-2a60.63,60.63,0,0,0,9.15-.46l1-.15a24.65,24.65,0,0,1-1.85,2.25c-.27.29-.54.57-.81.83q-2,.33-4.2.51c-1.74.14-3.53.19-5.34.17a27.24,27.24,0,0,0,2-3.15m9.06-1.17a59.63,59.63,0,0,1-8.67.47c.68-1.27,1.34-2.65,2-4.17a61.25,61.25,0,0,0,10.72-.67A32.4,32.4,0,0,1,99,119.6c-.55.09-1.1.18-1.66.25m4.88-4.51.4-.07a43.28,43.28,0,0,0,8.48-2.37,29.93,29.93,0,0,1-2.57,4,40,40,0,0,1-8.55,2.54,35,35,0,0,0,2.24-4.09m.36-.78c.52-1.19,1-2.45,1.46-3.77.14-.41.28-.83.41-1.25a44.48,44.48,0,0,0,9.15-2.55,36.26,36.26,0,0,1-2,4.93,41.69,41.69,0,0,1-9,2.64m2.1-5.79A56.3,56.3,0,0,0,106,103a43.74,43.74,0,0,0,9.11-2.55c-.07.43-.15.87-.23,1.3a43.6,43.6,0,0,1-1.07,4.37,42.24,42.24,0,0,1-9.19,2.67m11-6.9q.17-.89.3-1.77a31.58,31.58,0,0,0,4.32-2.31A25.88,25.88,0,0,0,122.62,96a37,37,0,0,1-1.18,5.36,25.68,25.68,0,0,1-5.19,3.57c-.51.27-1,.52-1.55.77.35-1.25.65-2.53.91-3.86m4.23-4.68A31.38,31.38,0,0,1,116,99.27a55.32,55.32,0,0,0,.47-6.22,27.51,27.51,0,0,0,6.17-3.7l.35-.29a42.67,42.67,0,0,1-.26,5.92,24.81,24.81,0,0,1-2.92,2.21m3.08-15.87c.31-.28.61-.58.9-.88a16.59,16.59,0,0,0,2.77-3.85,39.23,39.23,0,0,1,.87,5.62,17.21,17.21,0,0,1-3.79,5.31c0-.29,0-.57,0-.86a48.79,48.79,0,0,0-.7-5.34m1.88-12.39a13.81,13.81,0,0,0,1.1-4.52,35.13,35.13,0,0,1,1.73,4.64,14.83,14.83,0,0,1-.85,5.41,42.59,42.59,0,0,0-2-5.53m2.06-4.59h0c.13.41.23.82.33,1.22-.38-.92-.79-1.84-1.24-2.73a15.88,15.88,0,0,0-.15-1.68c.39,1.05.75,2.12,1.08,3.19M124.4,68c-.25-.55-.52-1.09-.79-1.64q-1-2-2.19-3.89a9.74,9.74,0,0,0,.39-1.07,12.4,12.4,0,0,0,.57-3.08A38.18,38.18,0,0,1,125.22,63a13.44,13.44,0,0,1-.82,5m-.68-11.47a18.54,18.54,0,0,1,1.35,4.68,38.06,38.06,0,0,0-2.68-4.07,14.65,14.65,0,0,0-.6-3.63,27.54,27.54,0,0,1,1.93,3m-2,.85a11.92,11.92,0,0,1-.55,3.81c-.06.18-.12.36-.19.54a51.43,51.43,0,0,0-4-5.31,10,10,0,0,0,.77-3.46,40.65,40.65,0,0,1,3.87,4.36l0,.06m-.09-1.26A40.32,40.32,0,0,0,117.77,52a12.35,12.35,0,0,0-.66-3.46,30.09,30.09,0,0,1,3.31,3.27,15.72,15.72,0,0,1,1.18,4.34m-4.76-10.07a25.47,25.47,0,0,1,2.43,3.47,30.1,30.1,0,0,0-2.67-2.35,18.5,18.5,0,0,0-1.25-2.35l-.32-.49a19.65,19.65,0,0,1,1.81,1.72m-2.09-.85c.21.35.41.69.6,1A34.72,34.72,0,0,0,111.77,44l-.48-.26a14.55,14.55,0,0,0-1.53-2.63,21.28,21.28,0,0,1,3.31,1.76,21.88,21.88,0,0,1,1.68,2.32m-6.31-6.8a33.42,33.42,0,0,1,3.09,2.76A24.87,24.87,0,0,0,108.9,40c-.25-.31-.52-.61-.8-.91-.49-.52-1-1-1.57-1.53a11.25,11.25,0,0,1,1.91.83m-6-3.87c1.27.68,2.47,1.41,3.61,2.17-.29-.08-.57-.14-.86-.2a31.16,31.16,0,0,0-3.06-2.11l.31.14m1.24,1.74c-.55,0-1.11-.08-1.69-.08l-1.05,0a22,22,0,0,0-2.46-1.65,7.65,7.65,0,0,1,1.78-.41,32.87,32.87,0,0,1,3.42,2.11m-8.61-4.42a39.66,39.66,0,0,1,4.16,1.77,10.37,10.37,0,0,0-1.55.51,26.87,26.87,0,0,0-3.18-1.41c.24-.4.43-.68.57-.87m-1.73-.57c.34.1.69.21,1,.33-.16.23-.35.51-.56.87l-.77-.25c-.9-.27-1.81-.5-2.72-.68a8.58,8.58,0,0,0-.43-1.16c1.15.24,2.3.54,3.45.89m-3.12,3.27a12.75,12.75,0,0,0-1.36-.13,21.72,21.72,0,0,0-1.86-2.58,27.11,27.11,0,0,1,2.77.33,19.64,19.64,0,0,1,.45,2.38M89,30.23a5,5,0,0,1,.56,1.2,22.51,22.51,0,0,0-3.21-.32,13.31,13.31,0,0,0-1.56-1.4,39,39,0,0,1,4.21.52M84.73,29l-1.12-.05-.15-.08,1.27.13m.58,2.12a20.13,20.13,0,0,0-2.63.22,22.75,22.75,0,0,0-3-1.52,32,32,0,0,1,3.71-.15,10.71,10.71,0,0,1,1.91,1.45m-4.65-2.4a5.55,5.55,0,0,1,1.13.24,28.74,28.74,0,0,0-3.53.33c-.56-.18-1.12-.33-1.68-.46a39.09,39.09,0,0,1,4.08-.11m-6.86.46a16.5,16.5,0,0,1,2.85.43,19.92,19.92,0,0,0-3,1,30.72,30.72,0,0,0-3.76-.43,27.94,27.94,0,0,1,3.91-1M67.36,30c.7-.17,1.4-.32,2.11-.46-.53.18-1,.38-1.54.59-.43,0-.86,0-1.28.07q.34-.11.72-.18Zm-4.74,1.56a25.58,25.58,0,0,1,3.62-.62,16.27,16.27,0,0,0-2.88,2,35.29,35.29,0,0,0-4.65.83,20.3,20.3,0,0,1,3.91-2.2m-6.81,2.76c.91-.48,1.84-.93,2.77-1.34A16.67,16.67,0,0,0,57,34.2c-.9.28-1.79.59-2.65.94.47-.3,1-.58,1.48-.85m-4.2,2.89a29.71,29.71,0,0,1,4.24-1.85,13,13,0,0,0-2.27,3.4,42.47,42.47,0,0,0-5.15,2.38,15.07,15.07,0,0,1,3.18-3.93M46.45,40.6a30,30,0,0,1,2.91-2.12,14.6,14.6,0,0,0-2,3.26,40.23,40.23,0,0,0-4.15,2.81,17,17,0,0,1,3.29-3.95m.41,2.25a13.92,13.92,0,0,0-.81,4.61,2.67,2.67,0,0,0,0,.4,48.81,48.81,0,0,0-4.92,3.91,14.42,14.42,0,0,1,1.22-5.64,37.45,37.45,0,0,1,4.51-3.28m-6.79,4.22c.79-1,1.61-1.91,2.47-2.81a13.09,13.09,0,0,0-.72,1.39c-.77.66-1.51,1.34-2.21,2.05.15-.21.31-.41.48-.62Zm-2.29,3.74a35.31,35.31,0,0,1,3.45-3.69,15.68,15.68,0,0,0-.81,5.3,43.51,43.51,0,0,0-4,4.31,15.55,15.55,0,0,1,1.34-5.92m-3.57,5.41a31.94,31.94,0,0,1,2.11-3.46,16.13,16.13,0,0,0-.59,4.88c-.48.62-.93,1.26-1.37,1.91-.55.81-1.06,1.63-1.53,2.47a16.06,16.06,0,0,1,1.38-5.8M35,59.94c.27-.4.55-.8.84-1.19a20.57,20.57,0,0,0,.85,4.3c.24.78.53,1.55.85,2.33a48,48,0,0,0-3.12,5.17,21.13,21.13,0,0,1-1.56-7A37.58,37.58,0,0,1,35,59.94M31,64.06c.37-1.19.77-2.36,1.22-3.5a16.22,16.22,0,0,0-.15,2.8,36.84,36.84,0,0,0-1.69,3.75,16.5,16.5,0,0,1,.62-3m1.16.72a22.62,22.62,0,0,0,1.75,6.61,40.29,40.29,0,0,0-2.11,5.14,21,21,0,0,1-1.5-7,33.14,33.14,0,0,1,1.86-4.77M30,87.63a20,20,0,0,1-.94-4.44h0c-.09-1-.15-2-.18-3h0c0-.13,0-.26,0-.38a24.78,24.78,0,0,0,1.33,4,32.65,32.65,0,0,0-.2,3.81M29,75.82a33.17,33.17,0,0,1,.74-4.29,23.46,23.46,0,0,0,1.71,6c-.13.44-.25.87-.37,1.3a34.79,34.79,0,0,0-.73,3.51A20.44,20.44,0,0,1,29,75.82m1.75,9.29a34.45,34.45,0,0,0,4.44,6.79c-.12.87-.21,1.73-.26,2.57,0,.69-.06,1.37-.06,2a31.91,31.91,0,0,1-4.12-6.8,29.56,29.56,0,0,1,0-4.61M31,91.88a35.36,35.36,0,0,0,3.9,5.81,26.85,26.85,0,0,0,.44,3.76,28.71,28.71,0,0,1-3.52-5.93A26.61,26.61,0,0,1,31,91.88M35.14,103l-.43-.8c-.28-.52-.54-1-.8-1.56.56.82,1.17,1.62,1.83,2.42q.25.93.57,1.83-.63-.94-1.17-1.89m.57-4.39a47.63,47.63,0,0,0,4.43,4.45c.76.67,1.55,1.33,2.37,2,0,.29,0,.58,0,.87a23.7,23.7,0,0,0,.18,3,45.39,45.39,0,0,1-6.29-6.14,25.67,25.67,0,0,1-.68-4.12m2.47,8.76a18.59,18.59,0,0,1-1.29-3,48,48,0,0,0,5.74,5.37l.2.15a17.55,17.55,0,0,0,.68,2.75,39.76,39.76,0,0,1-5.33-5.28m3.92,5.26h0c-.42-.45-.83-.92-1.24-1.39,1,.93,2,1.84,3.17,2.73.16.36.33.7.51,1-.86-.78-1.68-1.58-2.43-2.39m1.58-2.07a62.62,62.62,0,0,0,8.28,5.3,17.73,17.73,0,0,0,.2,2.64,57,57,0,0,1-7.55-5,16.24,16.24,0,0,1-.93-3m2.9,6.16A10.64,10.64,0,0,1,45.33,115a57.15,57.15,0,0,0,7,4.43,10,10,0,0,0,.44,1.43,47.83,47.83,0,0,1-6.19-4.11m12.66,8c.8.32,1.61.63,2.42.92v0c-.81-.3-1.62-.61-2.42-1m2.45.17a59.68,59.68,0,0,1-7.84-3.47,7,7,0,0,1-.68-1.58,69.42,69.42,0,0,0,8.69,3.77c-.09.51-.14.93-.17,1.28m-8.74-6a16.12,16.12,0,0,1-.28-2.69,74.06,74.06,0,0,0,9.82,4.27q-.33,1.41-.51,2.4a67,67,0,0,1-9-4m9.47,7s0,0,0,0c.62.21,1.25.42,1.88.61,1.71.52,3.44,1,5.17,1.34a50.33,50.33,0,0,1-7-1.9m8.48,1.46a58.74,58.74,0,0,1-6.41-1.58c-.71-.22-1.41-.44-2.11-.69,0-.3.07-.72.16-1.28.76.27,1.54.52,2.32.76a72.42,72.42,0,0,0,7,1.76,6.61,6.61,0,0,1-1,1m.89.17a11.06,11.06,0,0,0,.89-1,66,66,0,0,0,9,1,8.41,8.41,0,0,1-1.77.85,55.56,55.56,0,0,1-8.1-.81m16.36.28a43.72,43.72,0,0,1-6.51.55,10.6,10.6,0,0,0,1.27-.83,53.71,53.71,0,0,0,7.14-.32,16.09,16.09,0,0,1-1.9.6m-4.39-1a18.14,18.14,0,0,0,1.89-2c2,0,4,0,5.95-.17,1.09-.09,2.15-.21,3.19-.35a17.12,17.12,0,0,1-2.65,1.88,48.14,48.14,0,0,1-8.38.63M100.17,124A33.54,33.54,0,0,1,94,125.89a19.87,19.87,0,0,0,2.09-1.74,40.77,40.77,0,0,0,6.49-1.63,22.83,22.83,0,0,1-2.43,1.44m4.48-3a37.35,37.35,0,0,1-7.66,2.3,25.79,25.79,0,0,0,2.42-3,42.93,42.93,0,0,0,8.17-2.21,27,27,0,0,1-2.93,2.93m7.76-5.09c-.58.52-1.17,1-1.78,1.53h0a22.86,22.86,0,0,1-3.79,2.51,27.77,27.77,0,0,0,2.13-2.44,30.63,30.63,0,0,0,4-2.11l-.55.51Zm3.27-3.46a25.38,25.38,0,0,1-5.85,3.86,31.66,31.66,0,0,0,2.27-3.81,29,29,0,0,0,6-3.47,32.32,32.32,0,0,1-2.4,3.42m-3.1-1a38.11,38.11,0,0,0,1.85-4.85c.74-.32,1.46-.66,2.15-1a27.56,27.56,0,0,0,4.45-2.91,34,34,0,0,1-2,4.58,26.06,26.06,0,0,1-6.48,4.21m6.84-3.36.21-.41c.08-.06.14-.13.21-.19l-.42.6m5.22-9.1c-.48,1.08-1,2.15-1.55,3.19h0a17.71,17.71,0,0,1-2.49,3.54,35.06,35.06,0,0,0,1.48-3.94,20.86,20.86,0,0,0,2.59-2.85.13.13,0,0,1,0,.07Zm1.44-3.86a18.18,18.18,0,0,1-3.62,5.27,37.85,37.85,0,0,0,1-5.09,19.6,19.6,0,0,0,3.65-4.43,34.5,34.5,0,0,1-1,4.25m1.29-6.36a17.59,17.59,0,0,1-3.82,5.44,44.07,44.07,0,0,0,.17-5.78,18.32,18.32,0,0,0,3.82-4.81,35.33,35.33,0,0,1-.17,5.15m-.29-13.22a15.78,15.78,0,0,0,1.13-4.22,30.23,30.23,0,0,1,.59,3.91,15.79,15.79,0,0,1-.77,5.47,40.93,40.93,0,0,0-1-5.16m1.59,8.34a15.66,15.66,0,0,1-.41,2.29,35.58,35.58,0,0,0-.08-3.86,15.52,15.52,0,0,0,.76-2.17c0,1.25-.12,2.5-.25,3.74Z"/><polygon class="cls-1" points="114.64 14.65 114.49 14.96 110.37 13 108.4 17.14 108.09 16.99 110.06 12.85 105.92 10.89 106.07 10.58 110.2 12.54 112.16 8.42 112.47 8.57 110.51 12.69 114.64 14.65"/><path class="cls-1" d="M125.36,21.85a5.13,5.13,0,0,1,4.52-1.53A9,9,0,0,1,135,23.2a9.64,9.64,0,0,1,2.82,4.87,4.68,4.68,0,0,1-1.05,4.23l-3.09-3.13a2.48,2.48,0,0,0,.17-1.84,4.61,4.61,0,0,0-1.2-1.93,3.71,3.71,0,0,0-2.21-1.21A2.63,2.63,0,0,0,127.62,27a3.84,3.84,0,0,0,1.19,2.19,4.37,4.37,0,0,0,2,1.23,2.41,2.41,0,0,0,1.8-.15l3.09,3.13a4.78,4.78,0,0,1-4.25,1,9.57,9.57,0,0,1-4.83-2.89,8.89,8.89,0,0,1-2.81-5.14,5.13,5.13,0,0,1,1.59-4.48"/><polygon class="cls-1" points="132.24 37.32 141.86 31.11 148.19 40.93 145.58 42.62 141.54 36.36 140.47 37.05 144.5 43.31 142.25 44.76 138.22 38.51 137.14 39.2 141.18 45.45 138.56 47.14 132.24 37.32"/><path class="cls-1" d="M145.81,55.82l-1.7,5-1.91-4.85,1.94-4.72-.27-.7-3.29,1.29L139,47.87l10.65-4.19,3.31,8.4a5.05,5.05,0,0,1,.26,3.6,3.63,3.63,0,0,1-2.23,2.2,3.76,3.76,0,0,1-2.92.07A4.24,4.24,0,0,1,146,55.82Zm1.62-2.8c.36.91.92,1.22,1.68.92s1-.91.61-1.82l-1.33-3.38-2.29.9Z"/><path class="cls-1" d="M149.8,59.83a5.13,5.13,0,0,1,4.57,1.4,9,9,0,0,1,2.44,5.3,9.62,9.62,0,0,1-.56,5.61A4.66,4.66,0,0,1,152.93,75l-.68-4.34a2.44,2.44,0,0,0,1.21-1.4,4.41,4.41,0,0,0,.15-2.26,3.66,3.66,0,0,0-1.08-2.28,2.62,2.62,0,0,0-3.87.62,3.82,3.82,0,0,0-.31,2.48,4.35,4.35,0,0,0,.86,2.14,2.41,2.41,0,0,0,1.55.93l.68,4.35a4.79,4.79,0,0,1-4-1.68,9.61,9.61,0,0,1-2.23-5.16,9,9,0,0,1,.73-5.82,5.13,5.13,0,0,1,3.9-2.7"/><path class="cls-1" d="M145.88,85.16l1.46-.39L147.6,80l-1.41-.55.25-4.56,11.21,4.78-.36,6.55-11.66,3.52ZM150.33,81l-.16,3,4.14-1.11,0-.33Z"/><path class="cls-1" d="M146.17,100.39l-4.34,3,1.38-5,4.38-2.61.2-.73-3.41-.93L145.5,90l11,3-2.38,8.71a5.1,5.1,0,0,1-1.95,3,3.64,3.64,0,0,1-3.11.42,3.73,3.73,0,0,1-2.38-1.69,4.3,4.3,0,0,1-.41-3Zm3-1.27c-.26.95,0,1.53.79,1.75s1.31-.15,1.57-1.1l1-3.5-2.36-.65Z"/><polygon class="cls-1" points="141.56 103.67 151.8 108.81 146.57 119.25 143.79 117.86 147.12 111.2 145.98 110.63 142.65 117.28 140.25 116.08 143.58 109.43 142.44 108.86 139.11 115.51 136.33 114.12 141.56 103.67"/><path class="cls-1" d="M130.29,122.47l8,8.22-5,4.83a6.28,6.28,0,0,1-4.31,2,5.52,5.52,0,0,1-4.08-1.84,5.36,5.36,0,0,1-1.72-4.21,6.49,6.49,0,0,1,2.14-4.19Zm-.88,5.18-1.18,1.16c-1.35,1.3-1.41,2.58-.2,3.83s2.5,1.23,3.83-.07l1.2-1.16Z"/><rect class="cls-1" x="119.77" y="131.87" width="4.24" height="11.45" transform="matrix(0.81, -0.59, 0.59, 0.81, -57.65, 98.17)"/><path class="cls-1" d="M110.25,145a5.14,5.14,0,0,1-.55,4.74,9,9,0,0,1-4.78,3.37,9.7,9.7,0,0,1-5.61.47,4.7,4.7,0,0,1-3.37-2.77l4.15-1.45a2.47,2.47,0,0,0,1.6.94,4.56,4.56,0,0,0,2.25-.26,3.68,3.68,0,0,0,2-1.48,2.4,2.4,0,0,0,.18-2.13,2.36,2.36,0,0,0-1.5-1.56,3.75,3.75,0,0,0-2.49.14,4.4,4.4,0,0,0-2,1.23,2.47,2.47,0,0,0-.63,1.7l-4.15,1.45a4.8,4.8,0,0,1,.91-4.27A9.6,9.6,0,0,1,101,142a8.9,8.9,0,0,1,5.85-.34,5.13,5.13,0,0,1,3.37,3.35"/><path class="cls-1" d="M94.33,150.39a5.17,5.17,0,0,1-1.59,4.47,8.89,8.89,0,0,1-5.44,2.21,8.88,8.88,0,0,1-5.8-1,5.45,5.45,0,0,1-.91-8.5A9,9,0,0,1,86,145.36a9,9,0,0,1,5.77,1,5.16,5.16,0,0,1,2.52,4m-4.31.47A2.33,2.33,0,0,0,88.9,149a4,4,0,0,0-2.52-.43,3.85,3.85,0,0,0-2.4,1,2.58,2.58,0,0,0,.44,3.9,4,4,0,0,0,2.54.44,3.88,3.88,0,0,0,2.38-1,2.39,2.39,0,0,0,.68-2"/><polygon class="cls-1" points="67.47 156.56 63.26 156.08 64.57 144.7 69.44 145.26 72.91 151.36 73.12 151.38 73.77 145.76 77.98 146.24 76.67 157.62 71.71 157.05 68.36 150.69 68.15 150.66 67.47 156.56"/><path class="cls-1" d="M47.69,145.07a5.12,5.12,0,0,1,2.61-3,7.31,7.31,0,0,1,4.51-.53l.07-.2-2.73-3.82.11-.32,5,1.74,1,3.7A7.68,7.68,0,0,1,62,145.86a5.48,5.48,0,0,1-3.07,7.62,8.92,8.92,0,0,1-5.86-.32,8.88,8.88,0,0,1-4.82-3.38,5.15,5.15,0,0,1-.55-4.71m10.48,3.63a2.37,2.37,0,0,0-.22-2.16,4,4,0,0,0-2.09-1.46,3.89,3.89,0,0,0-2.6-.14A2.58,2.58,0,0,0,52,148.66a4,4,0,0,0,2.11,1.47,3.75,3.75,0,0,0,2.58.12,2.39,2.39,0,0,0,1.48-1.55"/><path class="cls-1" d="M43.66,135.78a7.64,7.64,0,0,1,3.48,3.77,4.85,4.85,0,0,1-.64,4.29l-3.26,5.3-3.61-2.22,3.15-5.12c.77-1.25.48-2.3-.88-3.13s-2.43-.63-3.21.62l-3.14,5.11-3.61-2.22,3.26-5.29a4.87,4.87,0,0,1,3.54-2.51,7.62,7.62,0,0,1,4.92,1.4"/><rect class="cls-1" x="26.23" y="132.43" width="11.45" height="4.24" transform="translate(-91.62 72.46) rotate(-49.96)"/><path class="cls-1" d="M27.58,128a1.37,1.37,0,0,0-.08-1.22,5.75,5.75,0,0,0-1.11-1.67c-.88-1-1.52-1.29-1.92-.94a.6.6,0,0,0-.18.33.78.78,0,0,0,.08.43,3.15,3.15,0,0,0,.23.41,5.57,5.57,0,0,0,.35.47l1.78,2.28a7.07,7.07,0,0,1,1.74,3.43,2.66,2.66,0,0,1-1,2.26,3.1,3.1,0,0,1-3.28.58,9.56,9.56,0,0,1-3.92-2.89A9.66,9.66,0,0,1,17.77,127a3.48,3.48,0,0,1,.89-3.35l2.9,3.23a1.31,1.31,0,0,0,0,1.18,4.81,4.81,0,0,0,1,1.56,3.87,3.87,0,0,0,1.18,1,.72.72,0,0,0,.83,0,.5.5,0,0,0,.18-.33.78.78,0,0,0-.11-.45,5.09,5.09,0,0,0-.3-.5c-.11-.15-.28-.37-.5-.64l-1.7-2.15a6,6,0,0,1-1.59-3.29,3.24,3.24,0,0,1,4.17-3,9.4,9.4,0,0,1,4,3,10.47,10.47,0,0,1,2.69,4.62,3.61,3.61,0,0,1-.91,3.42Z"/><polygon class="cls-1" points="8.19 113.78 10.86 112.19 12.96 115.7 20.12 111.41 22.3 115.04 15.14 119.33 17.24 122.84 14.57 124.44 8.19 113.78"/><path class="cls-1" d="M15.19,100.42l-1.17,1,1.75,4.46,1.51-.08L18.94,110l-12.18.3-2.38-6.11,9.15-8ZM12.85,106l-1.09-2.79L8.45,106l.12.31Z"/><path class="cls-1" d="M8.6,86.7l2.72-4.5.84,5.15-2.91,4.2.12.74,3.49-.56.68,4.18L2.23,97.74.79,88.82a5.14,5.14,0,0,1,.51-3.57A3.66,3.66,0,0,1,4,83.57a3.78,3.78,0,0,1,2.87.56,4.26,4.26,0,0,1,1.61,2.53ZM6.42,89.09Q6.18,87.64,5,87.83c-.81.13-1.14.68-1,1.65l.58,3.59L7,92.67Z"/><polygon class="cls-1" points="11.44 81.81 0 81.36 0.46 69.69 3.57 69.81 3.27 77.25 4.55 77.3 4.84 69.86 7.53 69.97 7.23 77.41 8.5 77.46 8.8 70.02 11.91 70.14 11.44 81.81"/><rect class="cls-1" x="7.34" y="50.46" width="4.24" height="11.45" transform="translate(-46.91 47.89) rotate(-72.07)"/><polygon class="cls-1" points="14.77 49.65 17.18 44.44 20 45.74 15.82 54.8 5.42 50.01 7.2 46.16 14.77 49.65"/><polygon class="cls-1" points="24.73 21.46 28.09 18.02 36.27 26.03 33.31 29.06 29.22 25.05 29.08 25.19 30.3 31.17 24.3 30.08 24.16 30.22 28.25 34.23 25.29 37.25 17.11 29.24 20.47 25.8 25.8 26.91 25.94 26.77 24.73 21.46"/><path class="cls-1" d="M33.54,21A5.18,5.18,0,0,1,33,16.24a8.94,8.94,0,0,1,3.92-4.37,8.93,8.93,0,0,1,5.66-1.63,5.13,5.13,0,0,1,4,2.52,5.12,5.12,0,0,1,.52,4.72,9,9,0,0,1-3.93,4.37,8.94,8.94,0,0,1-5.63,1.63,5.17,5.17,0,0,1-4-2.53m3.68-2.3A2.35,2.35,0,0,0,39,19.83a4,4,0,0,0,2.45-.71,3.89,3.89,0,0,0,1.73-1.94,2.37,2.37,0,0,0-.28-2.12,2.34,2.34,0,0,0-1.83-1.19,4,4,0,0,0-2.46.72,3.81,3.81,0,0,0-1.72,1.93,2.39,2.39,0,0,0,.29,2.13"/><polygon class="cls-1" points="54.95 3.64 58.95 2.22 62.78 13.01 58.15 14.65 52.36 10.7 52.16 10.78 54.05 16.11 50.06 17.53 46.23 6.74 50.93 5.07 56.74 9.3 56.94 9.23 54.95 3.64"/><path class="cls-1" d="M63.7,12.83,62.17,1.48,69,.56a6.2,6.2,0,0,1,4.66,1,5.43,5.43,0,0,1,2.19,3.9,5.33,5.33,0,0,1-1.12,4.4,6.45,6.45,0,0,1-4.21,2.1Zm3.78-3.64L69.12,9q2.79-.39,2.44-3c-.23-1.73-1.28-2.47-3.12-2.22L66.78,4Z"/><path class="cls-1" d="M77.21,5.28a5.22,5.22,0,0,1,2.41-4.09A8.91,8.91,0,0,1,85.38.05a9,9,0,0,1,5.51,2.09,5.17,5.17,0,0,1,1.7,4.42,5.15,5.15,0,0,1-2.42,4.09,9,9,0,0,1-5.77,1.14,8.94,8.94,0,0,1-5.48-2.08,5.15,5.15,0,0,1-1.71-4.43m4.32.36a2.33,2.33,0,0,0,.75,2,4,4,0,0,0,2.39.91,3.89,3.89,0,0,0,2.55-.51,2.38,2.38,0,0,0,1-1.87,2.36,2.36,0,0,0-.75-2,4,4,0,0,0-2.4-.9,3.76,3.76,0,0,0-2.53.52,2.37,2.37,0,0,0-1.06,1.87"/></g></g></svg>