<svg xmlns="http://www.w3.org/2000/svg" viewBox="0 0 210.71 120.5"><defs><style>.cls-1{fill:#efe4e4;}</style></defs><g id="Livello_2" data-name="Livello 2"><g id="Livello_1-2" data-name="Livello 1"><path class="cls-1" d="M96.53,70.85a2.43,2.43,0,0,0,.38,0,1.61,1.61,0,0,0,1.6-1.07,1.4,1.4,0,0,0-1.23-1.68c-8.76-1.75-15.69-5.23-20-10a1.86,1.86,0,0,0-2.32-.27,1.27,1.27,0,0,0-.31,2C79.43,65.12,87,69,96.53,70.85Z"/><path class="cls-1" d="M210.52,47a.76.76,0,0,0,.09-.18l0,0a.94.94,0,0,0,0-.16s0,0,0-.07,0-.09,0-.13,0-.05,0-.07a.88.88,0,0,0,0-.17.15.15,0,0,0,0-.07.35.35,0,0,0,0-.11v0a.13.13,0,0,0,0-.08.37.37,0,0,0-.05-.11.16.16,0,0,0,0-.07,1.63,1.63,0,0,0-.11-.17h0a125.3,125.3,0,0,0-44.76-33.13,149.21,149.21,0,0,0-119.29,0A125.12,125.12,0,0,0,1.59,45.57h0l-.12.17,0,.06-.06.13a.14.14,0,0,0,0,.06l0,0,0,.13v0a1.23,1.23,0,0,0,0,.19.13.13,0,0,0,0,.06.76.76,0,0,0,0,.15.13.13,0,0,1,0,.06,1.15,1.15,0,0,0,.06.17v0a1.62,1.62,0,0,0,.1.18l0,0a1.47,1.47,0,0,0,.1.13l0,0,0,0,0,0C27.6,73.5,65.63,88.54,106,88.54s78.39-15,104.33-41.27l0,0v0l0,0a1.47,1.47,0,0,0,.1-.13ZM47.89,14.91a145.45,145.45,0,0,1,116.21,0,123.51,123.51,0,0,1,40.29,28.52l-1.69-.51-1.62-.48-2.47-.7-1.49-.43-2.9-.78-1.08-.3-4-1-.93-.23-3.08-.75-1.51-.35-2.52-.58-1.68-.37-2.37-.52L175.3,36,173,35.57l-1.8-.36-2.29-.43-1.82-.33L164.79,34,163,33.73l-2.31-.38-1.81-.29-2.36-.35-1.76-.26-2.48-.34-1.65-.23-2.76-.34-1.39-.17c-1.38-.16-2.76-.32-4.14-.46-7.4-.78-14.93-1.33-22.37-1.63-4.64-.18-9.33-.27-14-.27-7.39,0-14.9.24-22.31.71s-15,1.21-22.31,2.16l-3.61.49-1.19.18-2.42.35-1.42.23-2.18.34-1.5.25-2.1.36-1.54.27-2,.38L41.81,35l-2.05.4-1.53.3-2.07.43-1.49.31-2.16.47-1.39.3-2.39.55-1.14.27c-1.18.27-2.35.56-3.52.84l-.26.07-3.24.82-1.15.31-2.35.62-1.33.37-2.15.59-1.4.41-2.08.6L8.7,43.1l-1.1.33A123.36,123.36,0,0,1,47.89,14.91Zm14.45,25a2.44,2.44,0,0,1,0-.27c0-.2,0-.39,0-.58l0-.33c0-.17,0-.35,0-.53l0-.33.06-.53c0-.11,0-.22,0-.33s0-.36.08-.53a3.06,3.06,0,0,1,.05-.32c0-.2.06-.4.1-.6a2,2,0,0,0,0-.24c.06-.27.11-.54.17-.81l.46,0c1.32-.17,2.63-.33,4-.48l.17,0,3.87-.41.78-.08c1.3-.13,2.6-.25,3.91-.36l.73-.06c1.26-.11,2.51-.21,3.77-.3l.26,0v0c-.15.27-.29.55-.42.83l-.09.21q-.18.39-.33.78l0,.09c-.11.29-.21.58-.31.88a1.18,1.18,0,0,1-.07.2l-.24.84s0,0,0,.07c-.08.3-.14.6-.2.9a1.55,1.55,0,0,0,0,.21c-.06.3-.11.59-.14.88v0c0,.31-.06.61-.09.92a1.77,1.77,0,0,1,0,.23c0,.3,0,.61,0,.92,0,10.79,10.37,19.57,23.12,19.57s23.11-8.78,23.11-19.57q0-.49,0-1c0-.08,0-.15,0-.23,0-.33,0-.65-.09-1,0,0,0-.06,0-.09q-.06-.45-.15-.9c0-.07,0-.14,0-.22-.07-.31-.14-.63-.23-.94a.83.83,0,0,0,0-.15c-.08-.28-.16-.56-.26-.84l-.06-.19c-.11-.31-.22-.62-.35-.92,0-.06,0-.11-.07-.17-.12-.27-.24-.54-.37-.8a1.3,1.3,0,0,0-.08-.17c-.15-.29-.3-.59-.47-.88l0-.07h.25l3.79.21.72,0c1.31.08,2.62.17,3.92.27l.78.06,3.88.31.18,0c1.33.12,2.66.24,4,.38l.46,0v0c0,.09.05.18.07.26s.11.46.16.69,0,.24.07.36.09.4.12.6,0,.26.07.39.07.39.1.58,0,.26.05.39,0,.39.08.58,0,.27,0,.4,0,.4,0,.59l0,.38c0,.22,0,.44,0,.65s0,.22,0,.32c0,.33,0,.65,0,1,0,18.52-17.8,33.59-39.67,33.59S62.32,59.27,62.32,40.75C62.32,40.47,62.33,40.19,62.34,39.9ZM106,85.75C67.39,85.75,31,71.65,5.72,47l.7-.22,1.51-.47,1.92-.58,1.52-.45,1.94-.56,1.52-.44,2-.54,1.51-.41,2-.54,1.47-.38,2.09-.54,1.4-.35L27.58,41l1.18-.29,3.4-.78.11,0c1.18-.27,2.35-.52,3.53-.77L37,38.86l2.37-.49,1.4-.28,2.15-.41,1.5-.28L46.46,37,48,36.75l2-.34,1.57-.26,2-.32,1.56-.24,2.05-.3,1.55-.22.78-.11s0,.06,0,.09c-.07.39-.14.78-.19,1.18a3.06,3.06,0,0,0,0,.32c-.06.42-.11.85-.15,1.28v.06c0,.42-.06.83-.08,1.24,0,.11,0,.22,0,.33q0,.65,0,1.29c0,20.06,19.28,36.38,43,36.38s43-16.32,43-36.38c0-.33,0-.67,0-1,0-.11,0-.21,0-.31s0-.48,0-.72,0-.22,0-.33c0-.27,0-.54-.07-.81,0-.06,0-.13,0-.2,0-.33-.08-.67-.13-1a2.17,2.17,0,0,0,0-.25c0-.25-.08-.51-.12-.76l-.06-.32c0-.25-.09-.49-.15-.74a2,2,0,0,0,0-.26s0-.07,0-.11l1.05.12,1.82.21,2.31.29,1.83.24,2.31.32,1.8.25,2.33.35,1.77.28c.8.12,1.59.26,2.38.39l1.71.28,2.48.44,1.59.29,2.77.52,1.29.25q4.05.8,8.08,1.7l1.28.3,2.73.62,1.55.38c.81.2,1.63.39,2.44.6.56.13,1.11.28,1.66.42.77.2,1.55.39,2.32.6l1.71.46,2.25.61,1.74.49c.73.2,1.47.41,2.2.63l1.76.51,2.16.66c.59.17,1.18.35,1.76.54l1,.3C181,71.65,144.6,85.75,106,85.75Z"/><path class="cls-1" d="M199.1,71.12a152.26,152.26,0,0,1-42.7,21A168,168,0,0,1,106,99.8,166.67,166.67,0,0,1,49.12,90,147.86,147.86,0,0,1,2.83,63.26a1.87,1.87,0,0,0-2.34,0,1.24,1.24,0,0,0,0,2A151.07,151.07,0,0,0,47.82,92.56a170.49,170.49,0,0,0,58.17,10,171.68,171.68,0,0,0,51.56-7.8,155.51,155.51,0,0,0,43.67-21.53,1.26,1.26,0,0,0,.21-2A1.88,1.88,0,0,0,199.1,71.12Z"/><path class="cls-1" d="M188.79,95.9c-24.28,14.27-52.8,21.8-82.47,21.8A167.9,167.9,0,0,1,55.53,110,152,152,0,0,1,12.6,88.59a1.87,1.87,0,0,0-2.33.16,1.25,1.25,0,0,0,.19,2,155.43,155.43,0,0,0,43.91,21.85,171.65,171.65,0,0,0,52,7.93c30.34,0,59.51-7.71,84.35-22.3a1.26,1.26,0,0,0,.42-1.94A1.84,1.84,0,0,0,188.79,95.9Z"/></g></g></svg>