<svg xmlns="http://www.w3.org/2000/svg" viewBox="0 0 164.68 164.68"><defs><style>.cls-1{fill:#efe4e4;}</style></defs><g id="Livello_2" data-name="Livello 2"><g id="Livello_1-2" data-name="Livello 1"><path class="cls-1" d="M82.34,0A82.34,82.34,0,0,0,24.12,140.56,82.34,82.34,0,1,0,140.56,24.12,81.77,81.77,0,0,0,82.34,0Zm55.75,138.09A78.84,78.84,0,0,1,26.59,26.59a78.84,78.84,0,1,1,111.5,111.5Z"/><path class="cls-1" d="M133.42,91.6l-7-1.38a1.75,1.75,0,1,0-.68,3.43l5.21,1a50.59,50.59,0,0,1-17.08,26,50.34,50.34,0,0,1-63,0,50.63,50.63,0,0,1-17.1-25.94l5.72-1.13a1.75,1.75,0,1,0-.67-3.43L31.28,91.7l-4.58.91A1.75,1.75,0,0,0,27,96.07a1.87,1.87,0,0,0,.34,0l3-.59a53.87,53.87,0,0,0,104-.09l3.47.68a2,2,0,0,0,.34,0,1.75,1.75,0,0,0,.34-3.46l-5.1-1Z"/><ellipse class="cls-1" cx="51.82" cy="58.9" rx="9.46" ry="17.76"/><ellipse class="cls-1" cx="113.79" cy="58.9" rx="9.46" ry="17.76"/></g></g></svg>